<?xml version="1.0" encoding="utf-8"?><!-- Uploaded to: SVG Repo, www.svgrepo.com, Generator: SVG Repo Mixer Tools -->
<svg width="800px" height="800px" viewBox="0 0 24 24" fill="none" xmlns="http://www.w3.org/2000/svg">
<path fill-rule="evenodd" clip-rule="evenodd" d="M8.5581 18.9099C8.60311 19.618 7.89062 20.1044 7.35055 19.6442C5.16871 17.785 4.45172 13.9899 5.48237 10.1435C6.58272 6.03694 9.32065 3.19731 12.3564 3.03964C12.8886 3.01201 13.2769 3.51632 13.3582 4.04291C13.4204 4.44576 13.5161 4.85313 13.5603 5.21401C13.7317 6.61365 13.3786 8.02025 12.5667 9.17223L9.72895 13.1983C8.8171 14.492 8.37643 16.052 8.4768 17.6309L8.5581 18.9099ZM15.5137 3.49628C15.5292 3.4222 15.6073 3.42901 15.6758 3.46102C18.6989 4.87234 19.6518 9.19062 18.4644 13.622C17.4013 17.5896 14.8115 20.3743 11.8982 20.7007C11.2742 20.7706 10.8213 20.091 10.7733 19.4649C10.7197 18.7664 10.5516 18.0113 10.5174 17.4732C10.4353 16.1814 10.7958 14.9051 11.5419 13.8466L14.3796 9.82049C15.372 8.41251 15.8035 6.69334 15.5941 4.98266C15.4754 4.01337 15.484 3.63885 15.5137 3.49628Z" fill="#9E623B" stroke="#2F2118" stroke-width="0.96"/>
</svg>