<!DOCTYPE svg PUBLIC "-//W3C//DTD SVG 1.1//EN" "http://www.w3.org/Graphics/SVG/1.1/DTD/svg11.dtd">

<!-- Uploaded to: SVG Repo, www.svgrepo.com, Transformed by: SVG Repo Mixer Tools -->
<svg fill="#000000" width="16px" height="16px" viewBox="-3.84 -3.84 31.68 31.68" id="coffee-beans" data-name="Flat Color" xmlns="http://www.w3.org/2000/svg" class="icon flat-color" stroke="#000000" stroke-width="0.00024000000000000003" transform="rotate(0)matrix(1, 0, 0, 1, 0, 0)">

<g id="SVGRepo_bgCarrier" stroke-width="0" transform="translate(0,0), scale(1)">

<rect x="-3.84" y="-3.84" width="31.68" height="31.68" rx="15.84" fill="#fff4eb" strokewidth="0"/>

</g>

<g id="SVGRepo_tracerCarrier" stroke-linecap="round" stroke-linejoin="round" stroke="#CCCCCC" stroke-width="0.048"/>

<g id="SVGRepo_iconCarrier">

<path id="secondary" d="M19.64,12.56a9.43,9.43,0,0,1-4.52,4.07,8.75,8.75,0,0,0-1.21-4.69,3.45,3.45,0,0,0-.2-.32,7.85,7.85,0,0,1,1.13-1c1.37-1,2.92-2.18,4.08-6.92,0,0,.07-.28.14-.66C21.38,5,21.68,9,19.64,12.56Zm-6.19-10a9.56,9.56,0,0,0-4.2,4,11.15,11.15,0,0,0-.68,1.39A6.8,6.8,0,0,1,12.46,10a9.49,9.49,0,0,1,1.19-1C14.85,8.15,16,7.3,17,3.26c0,0,.13-.51.24-1.12A5.71,5.71,0,0,0,13.45,2.59Z" style="fill: #ba2c2c;"/>

<path id="primary" d="M6.26,7.2c2.81-1,6.48.72,8.51,4.24,1.9,3.28,1.77,7-.12,9.06-.39-.31-.8-.65-1-.8-2.64-2.42-2.79-3.64-3-5.06-.2-1.69-.43-3.61-4-7A6.37,6.37,0,0,0,6.26,7.2Zm6.08,14c-3.2-2.92-3.41-4.64-3.61-6.3-.17-1.5-.34-2.9-3.35-5.78,0,0-.38-.36-.86-.76A5.72,5.72,0,0,0,3,11.82a9.52,9.52,0,0,0,1.33,5.62,9.56,9.56,0,0,0,4.2,4,6.29,6.29,0,0,0,2.59.6,4.78,4.78,0,0,0,1.76-.33C12.6,21.41,12.36,21.2,12.34,21.18Z" style="fill: #303030;"/>

</g>

</svg>
