<svg id="visual" viewBox="0 0 900 600" width="900" height="600" xmlns="http://www.w3.org/2000/svg" xmlns:xlink="http://www.w3.org/1999/xlink" version="1.1"><rect x="0" y="0" width="900" height="600" fill="#011428"></rect><defs><linearGradient id="grad1_0" x1="33.3%" y1="0%" x2="100%" y2="100%"><stop offset="20%" stop-color="#f7770f" stop-opacity="1"></stop><stop offset="80%" stop-color="#f7770f" stop-opacity="1"></stop></linearGradient></defs><defs><linearGradient id="grad1_1" x1="33.3%" y1="0%" x2="100%" y2="100%"><stop offset="20%" stop-color="#f7770f" stop-opacity="1"></stop><stop offset="80%" stop-color="#8e2c68" stop-opacity="1"></stop></linearGradient></defs><defs><linearGradient id="grad1_2" x1="33.3%" y1="0%" x2="100%" y2="100%"><stop offset="20%" stop-color="#011428" stop-opacity="1"></stop><stop offset="80%" stop-color="#8e2c68" stop-opacity="1"></stop></linearGradient></defs><defs><linearGradient id="grad2_0" x1="0%" y1="0%" x2="66.7%" y2="100%"><stop offset="20%" stop-color="#f7770f" stop-opacity="1"></stop><stop offset="80%" stop-color="#f7770f" stop-opacity="1"></stop></linearGradient></defs><defs><linearGradient id="grad2_1" x1="0%" y1="0%" x2="66.7%" y2="100%"><stop offset="20%" stop-color="#8e2c68" stop-opacity="1"></stop><stop offset="80%" stop-color="#f7770f" stop-opacity="1"></stop></linearGradient></defs><defs><linearGradient id="grad2_2" x1="0%" y1="0%" x2="66.7%" y2="100%"><stop offset="20%" stop-color="#8e2c68" stop-opacity="1"></stop><stop offset="80%" stop-color="#011428" stop-opacity="1"></stop></linearGradient></defs><g transform="translate(900, 0)"><path d="M0 405.6C-42.5 402.1 -85 398.5 -125.3 385.8C-165.7 373 -203.8 351.1 -233.9 322C-264.1 292.8 -286.3 256.5 -304.2 221C-322.1 185.6 -335.7 151 -351.9 114.3C-368.1 77.7 -386.9 38.8 -405.6 0L0 0Z" fill="#3b2857"></path><path d="M0 270.4C-28.3 268 -56.7 265.7 -83.6 257.2C-110.4 248.7 -135.9 234.1 -156 214.7C-176.1 195.2 -190.9 171 -202.8 147.3C-214.7 123.7 -223.8 100.7 -234.6 76.2C-245.4 51.8 -257.9 25.9 -270.4 0L0 0Z" fill="#d73b51"></path><path d="M0 135.2C-14.2 134 -28.3 132.8 -41.8 128.6C-55.2 124.3 -67.9 117 -78 107.3C-88 97.6 -95.4 85.5 -101.4 73.7C-107.4 61.9 -111.9 50.3 -117.3 38.1C-122.7 25.9 -129 12.9 -135.2 0L0 0Z" fill="#f7770f"></path></g><g transform="translate(0, 600)"><path d="M0 -405.6C36.9 -385 73.8 -364.4 114.6 -352.8C155.4 -341.2 200.1 -338.6 229.8 -316.3C259.5 -294 274.3 -252.1 301 -218.7C327.7 -185.2 366.3 -160.4 385.8 -125.3C405.2 -90.3 405.4 -45.2 405.6 0L0 0Z" fill="#3b2857"></path><path d="M0 -270.4C24.6 -256.7 49.2 -243 76.4 -235.2C103.6 -227.5 133.4 -225.7 153.2 -210.9C173 -196 182.8 -168 200.6 -145.8C218.4 -123.5 244.2 -106.9 257.2 -83.6C270.1 -60.2 270.3 -30.1 270.4 0L0 0Z" fill="#d73b51"></path><path d="M0 -135.2C12.3 -128.3 24.6 -121.5 38.2 -117.6C51.8 -113.7 66.7 -112.9 76.6 -105.4C86.5 -98 91.4 -84 100.3 -72.9C109.2 -61.7 122.1 -53.5 128.6 -41.8C135.1 -30.1 135.1 -15.1 135.2 0L0 0Z" fill="#f7770f"></path></g></svg>