<svg id="visual" viewBox="0 0 900 600" width="900" height="600" xmlns="http://www.w3.org/2000/svg" xmlns:xlink="http://www.w3.org/1999/xlink" version="1.1"><rect x="0" y="0" width="900" height="600" fill="#00141e"></rect><defs><linearGradient id="grad1_0" x1="33.3%" y1="100%" x2="100%" y2="0%"><stop offset="20%" stop-color="#15324e" stop-opacity="1"></stop><stop offset="80%" stop-color="#15324e" stop-opacity="1"></stop></linearGradient></defs><defs><linearGradient id="grad1_1" x1="33.3%" y1="100%" x2="100%" y2="0%"><stop offset="20%" stop-color="#15324e" stop-opacity="1"></stop><stop offset="80%" stop-color="#00141e" stop-opacity="1"></stop></linearGradient></defs><defs><linearGradient id="grad2_0" x1="0%" y1="100%" x2="66.7%" y2="0%"><stop offset="20%" stop-color="#15324e" stop-opacity="1"></stop><stop offset="80%" stop-color="#15324e" stop-opacity="1"></stop></linearGradient></defs><defs><linearGradient id="grad2_1" x1="0%" y1="100%" x2="66.7%" y2="0%"><stop offset="20%" stop-color="#00141e" stop-opacity="1"></stop><stop offset="80%" stop-color="#15324e" stop-opacity="1"></stop></linearGradient></defs><g transform="translate(900, 600)"><path d="M-405.6 0C-399.8 -58 -394.1 -116 -360.3 -149.2C-326.6 -182.5 -264.9 -191 -230.5 -230.5C-196.1 -270 -189.1 -340.4 -155.2 -374.7C-121.4 -409.1 -60.7 -407.4 0 -405.6L0 0Z" fill="#082335"></path><path d="M-202.8 0C-199.9 -29 -197 -58 -180.2 -74.6C-163.3 -91.3 -132.4 -95.5 -115.3 -115.3C-98.1 -135 -94.5 -170.2 -77.6 -187.4C-60.7 -204.5 -30.3 -203.7 0 -202.8L0 0Z" fill="#15324e"></path></g><g transform="translate(0, 0)"><path d="M405.6 0C373 43.3 340.4 86.6 321.5 133.2C302.7 179.7 297.6 229.5 272.9 272.9C248.3 316.4 204 353.7 155.2 374.7C106.5 395.8 53.2 400.7 0 405.6L0 0Z" fill="#082335"></path><path d="M202.8 0C186.5 21.7 170.2 43.3 160.8 66.6C151.3 89.9 148.8 114.7 136.5 136.5C124.1 158.2 102 176.8 77.6 187.4C53.2 197.9 26.6 200.4 0 202.8L0 0Z" fill="#15324e"></path></g></svg>